HIERARCHY
ROOT Hips
{
  OFFSET 1.44925e-005 102.336 -0.101585
  CHANNELS 6 Xposition Yposition Zposition Zrotation Xrotation Yrotation
  JOINT LeftUpLeg
  {
    OFFSET 8.9458 -8.66707 0.101652
    CHANNELS 3 Zrotation Xrotation Yrotation
    JOINT LeftLeg
    {
      OFFSET 0 -44.4227 1.3727
      CHANNELS 3 Zrotation Xrotation Yrotation
      JOINT LeftFoot
      {
        OFFSET -0.253549 -42.0924 -1.46059
        CHANNELS 3 Zrotation Xrotation Yrotation
        JOINT LeftToes
        {
          OFFSET -0.04 -4.41509 8.4991
          CHANNELS 3 Zrotation Xrotation Yrotation
          End Site
          {
            OFFSET 0.08 -0.047448 9.77979
          }
        }
      }
    }
  }
  JOINT Spine
  {
    OFFSET 0 11.8905 0
    CHANNELS 3 Zrotation Xrotation Yrotation
    JOINT Spine1
    {
      OFFSET 0 25.6574 0.127663
      CHANNELS 3 Zrotation Xrotation Yrotation
      JOINT RightShoulder
      {
        OFFSET -8.99 -0.362252 -0.22
        CHANNELS 3 Zrotation Xrotation Yrotation
        JOINT RightArm
        {
          OFFSET -10.2827 -0.00338 0.322123
          CHANNELS 3 Zrotation Xrotation Yrotation
          JOINT RightForeArm
          {
            OFFSET -26.364 0.099144 -1.42434
            CHANNELS 3 Zrotation Xrotation Yrotation
            JOINT RightHand
            {
              OFFSET -22.0324 0.085362 1.02216
              CHANNELS 3 Zrotation Xrotation Yrotation
              End Site
              {
                OFFSET -13.3284 -0.6 1.50291
              }
            }
          }
        }
      }
      JOINT LeftShoulder1
      {
        OFFSET 8.99 -0.362252 -0.22
        CHANNELS 3 Zrotation Xrotation Yrotation
        JOINT LeftArm
        {
          OFFSET 10.2827 -0.00337999 0.322123
          CHANNELS 3 Zrotation Xrotation Yrotation
          JOINT LeftForeArm
          {
            OFFSET 26.2597 0.099144 -1.42434
            CHANNELS 3 Zrotation Xrotation Yrotation
            JOINT LeftHand
            {
              OFFSET 22.0902 0.085362 1.02216
              CHANNELS 3 Zrotation Xrotation Yrotation
              End Site
              {
                OFFSET 13.419 -0.6 1.50291
              }
            }
          }
        }
      }
      JOINT Head
      {
        OFFSET 0 8.73416 0.011341
        CHANNELS 3 Zrotation Xrotation Yrotation
        End Site
        {
          OFFSET -0.29 12.7742 2.51395
        }
      }
    }
  }
  JOINT RightUpLeg
  {
    OFFSET -8.9458 -8.66707 0.101652
    CHANNELS 3 Zrotation Xrotation Yrotation
    JOINT RightLeg
    {
      OFFSET 0 -44.4227 1.3727
      CHANNELS 3 Zrotation Xrotation Yrotation
      JOINT RightFoot
      {
        OFFSET 0.253549 -42.0924 -1.46059
        CHANNELS 3 Zrotation Xrotation Yrotation
        JOINT RightToes
        {
          OFFSET 0.04 -4.41509 8.4991
          CHANNELS 3 Zrotation Xrotation Yrotation
          End Site
          {
            OFFSET -0.08 -0.137448 9.77979
          }
        }
      }
    }
  }
}
MOTION
Frames:	8
Frame Time:	0.0333333
185.624 103.089 4.93839 -2.71077 -0.842937 -92.1279 -1.5915 0.714926 0.693407 0.867779 8.69035 15.7442 -2.76981 -10.5183 -0.0285439 -1.32781e-009 8.75223e-006 -1.45757e-008 0.207335 7.43011 -0.396299 -1.18234 -2.21818 -0.117908 37.741 1.78591 0.0784485 40.3869 -11.1382 3.14669 7.16098 31.3663 11.8412 -9.42466 9.50265 -0.180118 -43.9798 3.46948 -3.35281 -28.5076 -14.1066 3.54637 -3.30989 32.3137 -16.4836 5.82328 9.61819 -0.917488 0.876181 -6.06063 -2.89495 -0.223007 1.86467 -3.80428 0.153117 9.96878 -10.511 1.90864 -13.5487 -0.105657 0.0462048 0.000530889 0.662642 
185.616 103.089 4.93519 -2.71015 -0.842325 -92.1546 -1.59766 0.734574 0.677707 0.881107 8.65946 15.7792 -2.7698 -10.5163 -0.0285437 -1.32781e-009 8.75223e-006 -1.45757e-008 0.230378 7.59338 -0.407246 -1.18091 -2.43012 -0.129896 37.7325 1.78591 0.0726721 40.356 -11.1639 3.11684 7.11534 31.6485 11.8349 -9.36191 9.50267 -0.129083 -44.0638 3.48295 -3.3669 -28.3965 -13.8721 3.69061 -3.27796 32.0491 -16.6029 5.82328 9.61819 -0.917488 0.439969 -6.29095 -3.1018 -0.225639 1.8484 -3.81169 0.155138 10.0053 -10.4814 1.91048 -13.5668 -0.105665 0.0462048 0.000530889 0.662642 
185.596 103.089 4.92613 -2.72832 -0.849409 -92.2092 -1.6106 0.801806 0.668394 0.89463 8.59331 15.8398 -2.76979 -10.4938 -0.0285416 -1.32781e-009 8.75223e-006 -1.45757e-008 0.168752 7.77095 -0.397867 -1.06054 -2.63453 -0.143783 37.665 1.78591 0.0634151 40.3486 -11.0703 3.10349 7.08272 31.8729 11.8362 -9.26617 9.50296 -0.0331567 -44.2016 3.505 -3.38979 -28.2634 -13.7792 3.82853 -3.30139 31.8343 -16.6376 5.82328 9.61819 -0.917488 -0.443924 -6.86568 -3.41809 -0.244733 1.8688 -3.84386 0.17089 10.0197 -10.3975 1.90965 -13.5792 -0.105671 0.0462048 0.000530889 0.662642 
185.581 103.087 4.90779 -2.71263 -0.852059 -92.2259 -1.60137 0.811122 0.675339 0.90058 8.56478 15.8509 -2.7679 -10.4888 -0.0285411 -1.32781e-009 8.75223e-006 -1.45757e-008 0.057349 7.81316 -0.36383 -0.880085 -2.69588 -0.143307 37.5694 1.78591 0.0653504 40.3671 -10.8673 3.102 7.13391 31.6748 11.8421 -9.16454 9.506 -0.0143244 -44.3189 3.521 -3.40358 -28.1782 -13.9811 3.80247 -3.3872 31.9268 -16.5031 5.82328 9.61819 -0.917488 -1.13223 -7.37691 -3.62285 -0.251794 1.86625 -3.86706 0.199331 10.0083 -10.3553 1.87575 -13.5878 -0.105674 0.0462048 0.000530889 0.662642 
185.577 103.086 4.88045 -2.63286 -0.842616 -92.172 -1.56147 0.699281 0.686326 0.893264 8.62106 15.7828 -2.76176 -10.5239 -0.0285444 -1.32781e-009 8.75223e-006 -1.45757e-008 -0.00329256 7.81113 -0.333955 -0.769049 -2.77899 -0.134679 37.5033 1.78591 0.0822895 40.3598 -10.7623 3.04871 7.16997 31.4448 11.8593 -9.0901 9.5141 -0.0805384 -44.3926 3.52606 -3.40429 -28.11 -14.0937 3.72024 -3.41764 32.0865 -16.421 5.82328 9.61819 -0.917488 -1.20214 -7.39931 -3.6629 -0.224024 1.79596 -3.84701 0.222387 9.99465 -10.4266 1.82724 -13.5983 -0.105679 0.0462048 0.000530889 0.662642 
185.563 103.084 4.85079 -2.547 -0.834914 -92.0845 -1.52336 0.570351 0.688052 0.883507 8.7005 15.6869 -2.76633 -10.5591 -0.0285476 -1.32781e-009 8.75223e-006 -1.45757e-008 -0.0429522 7.81175 -0.322014 -0.681795 -2.87301 -0.139518 37.4448 1.78377 0.0914087 40.3612 -10.8819 2.98979 7.09547 31.6816 11.8791 -9.05276 9.51733 -0.10221 -44.4883 3.53172 -3.40908 -28.0014 -13.909 3.6998 -3.34162 32.0649 -16.5267 5.82328 9.61819 -0.917488 -0.972822 -7.13521 -3.64648 -0.18523 1.73503 -3.80854 0.22959 9.96608 -10.5504 1.82289 -13.5999 -0.10568 0.0462048 0.000530889 0.662642 
185.53 103.081 4.82616 -2.51862 -0.844357 -92.0186 -1.51815 0.549578 0.677191 0.887937 8.70893 15.6313 -2.79193 -10.556 -0.0285474 -1.32781e-009 8.75223e-006 -1.45757e-008 -0.133849 7.72876 -0.31491 -0.521629 -2.78037 -0.160057 37.3563 1.77184 0.0693381 40.4562 -11.1393 3.03732 7.00155 32.1925 11.8489 -9.04178 9.51142 -0.0099917 -44.6594 3.54808 -3.41274 -27.8529 -13.6643 3.69367 -3.23738 31.9374 -16.695 5.82328 9.61819 -0.917488 -0.987882 -7.12428 -3.65928 -0.171725 1.75716 -3.8001 0.229281 9.91428 -10.6222 1.86064 -13.5931 -0.105677 0.0462048 0.000530889 0.662642 
185.497 103.079 4.80854 -2.52974 -0.8663 -91.9886 -1.53877 0.606303 0.65664 0.903897 8.65284 15.6287 -2.81728 -10.5378 -0.0285457 -1.32781e-009 8.75223e-006 -1.45757e-008 -0.193333 7.62802 -0.310278 -0.420015 -2.63839 -0.170976 37.3117 1.75273 0.028921 40.5967 -11.39 3.13052 7.01779 32.4572 11.7456 -9.13042 9.50151 0.0721581 -44.7896 3.55982 -3.40923 -27.7591 -13.5281 3.67631 -3.17284 31.8431 -16.8012 5.82328 9.61819 -0.917488 -1.1683 -7.31882 -3.65587 -0.184485 1.80897 -3.82419 0.232678 9.88133 -10.6323 1.87838 -13.6006 -0.10568 0.0462048 0.000530889 0.662642 
